<?xml version="1.0" standalone="no"?>
<!DOCTYPE svg PUBLIC "-//W3C//DTD SVG 20010904//EN"
 "http://www.w3.org/TR/2001/REC-SVG-20010904/DTD/svg10.dtd">
<svg version="1.0" xmlns="http://www.w3.org/2000/svg"
 width="1024.000000pt" height="1024.000000pt" viewBox="0 0 1024.000000 1024.000000"
 preserveAspectRatio="xMidYMid meet">

<g transform="translate(0.000000,1024.000000) scale(0.100000,-0.100000)"
fill="#000000" stroke="none">
<path d="M1543 6850 c-144 -38 -293 -133 -384 -244 -28 -33 -70 -101 -94 -151
-78 -160 -93 -313 -45 -467 23 -74 107 -208 195 -312 57 -67 85 -119 85 -154
0 -20 -60 -244 -220 -817 -15 -55 -62 -219 -105 -365 -72 -248 -76 -270 -73
-341 5 -85 29 -138 90 -196 84 -81 232 -103 334 -51 48 25 111 84 133 126 6
11 45 141 86 289 42 147 119 421 172 608 52 187 106 381 119 430 48 177 89
229 224 284 111 45 141 71 265 220 87 106 124 142 150 151 19 6 36 19 39 28
29 99 34 310 11 410 -37 156 -146 330 -236 378 -38 19 -43 10 -85 -142 -48
-177 -133 -446 -145 -460 -5 -6 -37 -24 -70 -39 l-61 -27 -186 59 -187 58 -34
64 -34 64 93 294 c50 161 89 300 86 308 -7 19 -35 18 -123 -5z m-283 -2736
c79 -47 78 -166 -2 -210 -31 -18 -93 -17 -128 1 -79 41 -78 167 2 211 32 18
95 17 128 -2z"/>
<path d="M4823 6369 c-88 -28 -181 -103 -234 -189 -9 -14 -26 -52 -39 -85 -32
-83 -32 -233 -1 -319 45 -125 125 -215 239 -269 64 -31 72 -32 192 -32 123 0
127 1 195 34 133 66 220 184 245 334 34 199 -52 391 -220 494 -91 55 -259 70
-377 32z m251 -173 c53 -22 113 -83 133 -134 26 -67 24 -202 -3 -262 -47 -103
-119 -150 -229 -150 -105 0 -175 42 -221 131 -72 143 -22 335 105 401 61 32
157 38 215 14z"/>
<path d="M5577 6374 c-4 -4 -7 -207 -7 -451 l0 -444 98 3 97 3 0 283 c0 155 2
282 5 282 3 -1 53 -101 111 -223 l105 -222 50 -3 c27 -1 54 1 60 5 6 5 55 103
109 218 54 116 102 214 106 220 5 5 9 -117 9 -278 l0 -287 95 0 95 0 -2 448
-3 447 -115 -3 c-63 -2 -118 -6 -122 -10 -6 -6 -191 -396 -214 -452 -10 -22
-16 -13 -80 120 -38 80 -91 190 -119 245 l-50 100 -110 3 c-61 2 -114 0 -118
-4z"/>
<path d="M8720 5930 l0 -450 95 0 95 0 0 150 0 150 63 0 62 0 80 -150 80 -150
108 0 109 0 -30 53 c-164 293 -157 278 -136 289 42 23 112 106 128 153 61 179
-52 358 -248 394 -33 6 -138 11 -233 11 l-173 0 0 -450z m403 256 c54 -22 72
-51 72 -113 0 -49 -3 -58 -33 -84 -32 -28 -35 -29 -142 -29 l-110 0 0 120 0
120 90 0 c54 0 104 -6 123 -14z"/>
<path d="M3090 5926 l0 -446 100 0 100 0 0 144 0 144 118 4 c100 3 125 7 172
29 63 30 120 84 146 138 26 52 30 167 10 229 -23 67 -81 131 -152 167 l-59 30
-217 3 -218 3 0 -445z m421 241 c19 -13 40 -39 48 -61 13 -33 13 -44 0 -79
-23 -66 -54 -81 -170 -85 l-99 -4 0 126 0 126 94 0 c80 0 98 -3 127 -23z"/>
<path d="M3890 5925 l0 -445 280 0 280 0 0 95 0 95 -185 0 -185 0 0 350 0 350
-95 0 -95 0 0 -445z"/>
<path d="M6700 5924 l0 -446 243 4 c228 3 245 4 292 26 106 49 157 125 157
233 0 85 -32 147 -92 181 -22 13 -40 25 -40 28 0 3 15 15 34 27 45 29 66 78
66 155 0 48 -6 76 -23 108 -25 48 -97 104 -155 120 -20 5 -137 10 -259 10
l-223 0 0 -446z m430 271 c40 -21 56 -72 36 -118 -8 -20 -23 -40 -33 -46 -11
-5 -69 -11 -129 -12 l-109 -2 -3 97 -3 96 106 0 c74 0 115 -4 135 -15z m33
-365 c61 -49 53 -141 -16 -173 -26 -13 -63 -17 -146 -17 l-111 0 0 105 0 105
124 0 c108 0 126 -2 149 -20z"/>
<path d="M7560 5925 l0 -446 98 3 97 3 3 443 2 442 -100 0 -100 0 0 -445z"/>
<path d="M7950 5925 l0 -445 305 0 306 0 -3 88 -3 87 -208 3 -208 2 3 91 3 91
168 -1 167 0 0 84 0 85 -112 1 c-62 0 -139 0 -170 -1 l-58 -1 0 95 0 96 200 0
200 0 0 85 0 85 -295 0 -295 0 0 -445z"/>
<path d="M2373 5523 c-226 -331 -373 -557 -410 -633 -133 -269 -148 -485 -49
-692 102 -212 287 -328 526 -328 206 0 365 85 479 256 75 112 104 210 104 354
1 187 -52 341 -212 620 -84 147 -340 540 -351 540 -4 0 -43 -53 -87 -117z
m132 29 c-2 -2 5 -12 16 -23 11 -11 17 -24 14 -30 -4 -5 -1 -8 7 -7 7 2 12 -5
12 -14 -1 -10 2 -18 7 -18 10 0 89 -115 89 -129 0 -19 -18 -12 -25 10 -4 11
-9 18 -11 16 -7 -7 18 -57 28 -57 4 0 8 5 8 10 0 6 5 10 11 10 6 0 8 -7 5 -16
-3 -8 -2 -13 3 -9 10 6 157 -237 213 -350 18 -38 32 -79 30 -90 -2 -15 -1 -17
6 -6 8 11 11 9 17 -8 3 -11 3 -26 -1 -32 -4 -8 -3 -9 4 -5 14 8 27 -37 16 -55
-5 -8 -3 -9 6 -4 10 6 12 4 7 -8 -3 -10 -2 -17 2 -17 5 0 14 -23 21 -50 11
-48 11 -51 -11 -70 -17 -14 -19 -18 -6 -14 10 4 17 1 17 -6 0 -6 5 -8 10 -5
14 9 13 -184 -1 -240 -6 -25 -15 -42 -20 -39 -5 3 -6 -2 -3 -10 3 -8 -11 -50
-31 -92 -40 -83 -120 -174 -205 -231 -107 -73 -293 -102 -432 -68 -72 17 -167
58 -179 77 -3 5 -9 9 -13 8 -28 -7 -174 159 -160 182 4 6 3 8 -3 5 -18 -11
-70 122 -81 208 -9 73 -5 236 7 248 5 5 7 16 4 25 -4 9 -2 13 4 9 7 -5 9 0 6
13 -4 16 -2 19 13 14 14 -4 15 -3 6 4 -11 7 -11 17 -1 50 6 23 16 39 20 36 5
-3 6 1 4 9 -6 15 68 169 94 197 9 9 17 23 19 30 4 16 63 104 74 108 4 2 8 10
8 17 0 8 6 20 13 27 7 7 28 38 47 68 30 48 55 84 90 127 5 6 24 35 42 65 56
93 116 173 127 171 6 -2 8 5 5 15 -3 9 8 1 24 -18 17 -19 29 -36 27 -38z"/>
<path d="M2367 5475 c-4 -8 -1 -17 6 -21 7 -4 9 -4 5 1 -4 4 -3 14 3 22 7 8 8
13 1 13 -5 0 -12 -7 -15 -15z"/>
<path d="M2420 5461 c0 -6 4 -13 10 -16 6 -3 7 1 4 9 -7 18 -14 21 -14 7z"/>
<path d="M2526 5397 c3 -10 9 -15 12 -12 3 3 0 11 -7 18 -10 9 -11 8 -5 -6z"/>
<path d="M2450 5389 c0 -5 5 -7 10 -4 6 3 10 8 10 11 0 2 -4 4 -10 4 -5 0 -10
-5 -10 -11z"/>
<path d="M2350 5369 c0 -5 5 -7 10 -4 6 3 10 8 10 11 0 2 -4 4 -10 4 -5 0 -10
-5 -10 -11z"/>
<path d="M2480 5349 c0 -5 5 -7 10 -4 6 3 10 8 10 11 0 2 -4 4 -10 4 -5 0 -10
-5 -10 -11z"/>
<path d="M2510 5340 c0 -5 5 -10 11 -10 5 0 7 5 4 10 -3 6 -8 10 -11 10 -2 0
-4 -4 -4 -10z"/>
<path d="M2566 5323 c-6 -14 -5 -15 5 -6 7 7 10 15 7 18 -3 3 -9 -2 -12 -12z"/>
<path d="M2475 5319 c-4 -6 -5 -12 -2 -15 2 -3 7 2 10 11 7 17 1 20 -8 4z"/>
<path d="M2529 5299 c4 -13 13 -24 20 -25 6 -1 7 0 1 3 -5 2 -10 11 -10 18 0
8 -4 17 -10 20 -6 4 -7 -2 -1 -16z"/>
<path d="M2286 5243 c-6 -14 -5 -15 5 -6 7 7 10 15 7 18 -3 3 -9 -2 -12 -12z"/>
<path d="M2325 5230 c-3 -6 1 -7 9 -4 18 7 21 14 7 14 -6 0 -13 -4 -16 -10z"/>
<path d="M2381 5204 c0 -11 3 -14 6 -6 3 7 2 16 -1 19 -3 4 -6 -2 -5 -13z"/>
<path d="M2381 5164 c0 -11 3 -14 6 -6 3 7 2 16 -1 19 -3 4 -6 -2 -5 -13z"/>
<path d="M2200 5155 c0 -8 4 -15 10 -15 5 0 7 7 4 15 -4 8 -8 15 -10 15 -2 0
-4 -7 -4 -15z"/>
<path d="M2415 5139 c-4 -6 -5 -12 -2 -15 2 -3 7 2 10 11 7 17 1 20 -8 4z"/>
<path d="M2578 5138 c5 -5 16 -8 23 -6 8 3 3 7 -10 11 -17 4 -21 3 -13 -5z"/>
<path d="M2655 5130 c3 -5 8 -10 11 -10 2 0 4 5 4 10 0 6 -5 10 -11 10 -5 0
-7 -4 -4 -10z"/>
<path d="M2215 5110 c-3 -5 -1 -10 4 -10 6 0 11 5 11 10 0 6 -2 10 -4 10 -3 0
-8 -4 -11 -10z"/>
<path d="M2120 5080 c-13 -8 -12 -10 3 -10 9 0 17 5 17 10 0 12 -1 12 -20 0z"/>
<path d="M2616 5075 c4 -8 8 -15 10 -15 2 0 4 7 4 15 0 8 -4 15 -10 15 -5 0
-7 -7 -4 -15z"/>
<path d="M2410 5050 c0 -11 2 -20 4 -20 2 0 6 9 9 20 3 11 1 20 -4 20 -5 0 -9
-9 -9 -20z"/>
<path d="M2649 5062 c7 -5 11 -14 7 -20 -3 -6 -1 -14 5 -17 7 -5 9 1 7 16 -1
12 -10 24 -18 26 -12 4 -13 3 -1 -5z"/>
<path d="M2240 5040 c0 -5 5 -10 11 -10 5 0 7 5 4 10 -3 6 -8 10 -11 10 -2 0
-4 -4 -4 -10z"/>
<path d="M2555 5029 c-4 -6 -5 -12 -2 -15 2 -3 7 2 10 11 7 17 1 20 -8 4z"/>
<path d="M2696 5027 c3 -10 9 -15 12 -12 3 3 0 11 -7 18 -10 9 -11 8 -5 -6z"/>
<path d="M2436 4994 c-8 -22 -4 -25 11 -9 7 8 9 16 4 19 -5 3 -12 -1 -15 -10z"/>
<path d="M2346 4987 c3 -10 9 -15 12 -12 3 3 0 11 -7 18 -10 9 -11 8 -5 -6z"/>
<path d="M2395 4980 c3 -5 8 -10 11 -10 2 0 4 5 4 10 0 6 -5 10 -11 10 -5 0
-7 -4 -4 -10z"/>
<path d="M2024 4959 c-3 -6 -3 -13 0 -16 3 -4 6 0 6 8 0 12 2 12 9 0 5 -8 11
-9 15 -3 3 5 -1 12 -9 16 -8 3 -17 1 -21 -5z"/>
<path d="M2413 4949 c3 -9 1 -21 -4 -26 -6 -6 -4 -10 5 -10 14 0 14 33 0 46
-4 3 -5 -1 -1 -10z"/>
<path d="M2615 4940 c3 -5 8 -10 11 -10 2 0 4 5 4 10 0 6 -5 10 -11 10 -5 0
-7 -4 -4 -10z"/>
<path d="M2840 4930 c0 -5 5 -10 11 -10 5 0 7 5 4 10 -3 6 -8 10 -11 10 -2 0
-4 -4 -4 -10z"/>
<path d="M2731 4874 c0 -11 3 -14 6 -6 3 7 2 16 -1 19 -3 4 -6 -2 -5 -13z"/>
<path d="M2845 4880 c-3 -5 -1 -10 4 -10 6 0 11 5 11 10 0 6 -2 10 -4 10 -3 0
-8 -4 -11 -10z"/>
<path d="M2496 4862 c-2 -4 -1 -14 3 -21 6 -9 10 -7 14 8 5 20 -7 29 -17 13z"/>
<path d="M2706 4855 c-3 -9 -6 -22 -5 -28 0 -7 5 -1 10 12 5 13 8 26 5 28 -2
2 -6 -3 -10 -12z"/>
<path d="M2770 4861 c0 -5 7 -12 16 -15 14 -5 15 -4 4 9 -14 17 -20 19 -20 6z"/>
<path d="M2532 4830 c0 -14 2 -19 5 -12 2 6 2 18 0 25 -3 6 -5 1 -5 -13z"/>
<path d="M2280 4829 c0 -5 5 -7 10 -4 6 3 10 8 10 11 0 2 -4 4 -10 4 -5 0 -10
-5 -10 -11z"/>
<path d="M2482 4820 c0 -14 2 -19 5 -12 2 6 2 18 0 25 -3 6 -5 1 -5 -13z"/>
<path d="M2585 4830 c-3 -6 1 -7 9 -4 18 7 21 14 7 14 -6 0 -13 -4 -16 -10z"/>
<path d="M2055 4810 c3 -5 8 -10 11 -10 2 0 4 5 4 10 0 6 -5 10 -11 10 -5 0
-7 -4 -4 -10z"/>
<path d="M2431 4804 c0 -11 3 -14 6 -6 3 7 2 16 -1 19 -3 4 -6 -2 -5 -13z"/>
<path d="M2609 4803 c-13 -16 -12 -17 4 -4 16 13 21 21 13 21 -2 0 -10 -8 -17
-17z"/>
<path d="M2750 4811 c0 -5 7 -12 16 -15 14 -5 15 -4 4 9 -14 17 -20 19 -20 6z"/>
<path d="M1940 4806 c0 -2 7 -7 16 -10 8 -3 12 -2 9 4 -6 10 -25 14 -25 6z"/>
<path d="M2700 4791 c0 -10 19 -25 25 -20 1 2 -3 10 -11 17 -8 7 -14 8 -14 3z"/>
<path d="M2075 4770 c-3 -5 -1 -10 4 -10 6 0 11 5 11 10 0 6 -2 10 -4 10 -3 0
-8 -4 -11 -10z"/>
<path d="M2360 4760 c8 -5 20 -10 25 -10 6 0 3 5 -5 10 -8 5 -19 10 -25 10 -5
0 -3 -5 5 -10z"/>
<path d="M2571 4754 c0 -11 3 -14 6 -6 3 7 2 16 -1 19 -3 4 -6 -2 -5 -13z"/>
<path d="M2795 4740 c-3 -5 -1 -10 4 -10 6 0 11 5 11 10 0 6 -2 10 -4 10 -3 0
-8 -4 -11 -10z"/>
<path d="M2476 4727 c3 -10 9 -15 12 -12 3 3 0 11 -7 18 -10 9 -11 8 -5 -6z"/>
<path d="M2741 4714 c0 -11 3 -14 6 -6 3 7 2 16 -1 19 -3 4 -6 -2 -5 -13z"/>
<path d="M2460 4700 c0 -5 5 -10 11 -10 5 0 7 5 4 10 -3 6 -8 10 -11 10 -2 0
-4 -4 -4 -10z"/>
<path d="M2695 4700 c-3 -5 -1 -10 4 -10 6 0 11 5 11 10 0 6 -2 10 -4 10 -3 0
-8 -4 -11 -10z"/>
<path d="M2901 4674 c0 -11 3 -14 6 -6 3 7 2 16 -1 19 -3 4 -6 -2 -5 -13z"/>
<path d="M2960 4680 c0 -5 5 -10 11 -10 5 0 7 5 4 10 -3 6 -8 10 -11 10 -2 0
-4 -4 -4 -10z"/>
<path d="M2476 4663 c-6 -14 -5 -15 5 -6 7 7 10 15 7 18 -3 3 -9 -2 -12 -12z"/>
<path d="M2680 4670 c0 -5 5 -10 11 -10 5 0 7 5 4 10 -3 6 -8 10 -11 10 -2 0
-4 -4 -4 -10z"/>
<path d="M2505 4650 c3 -5 8 -10 11 -10 2 0 4 5 4 10 0 6 -5 10 -11 10 -5 0
-7 -4 -4 -10z"/>
<path d="M1960 4629 c0 -5 5 -7 10 -4 6 3 10 8 10 11 0 2 -4 4 -10 4 -5 0 -10
-5 -10 -11z"/>
<path d="M2121 4624 c0 -11 3 -14 6 -6 3 7 2 16 -1 19 -3 4 -6 -2 -5 -13z"/>
<path d="M2683 4625 c0 -8 4 -12 9 -9 4 3 8 9 8 15 0 5 -4 9 -8 9 -5 0 -9 -7
-9 -15z"/>
<path d="M2570 4615 c-6 -8 -10 -19 -8 -24 1 -6 8 1 15 14 13 28 11 31 -7 10z"/>
<path d="M2596 4614 c-8 -20 -8 -24 2 -24 4 0 8 9 9 20 2 24 -3 26 -11 4z"/>
<path d="M2786 4613 c-6 -14 -5 -15 5 -6 7 7 10 15 7 18 -3 3 -9 -2 -12 -12z"/>
<path d="M2880 4614 c0 -8 5 -12 10 -9 6 4 8 11 5 16 -9 14 -15 11 -15 -7z"/>
<path d="M2220 4606 c0 -2 7 -9 15 -16 13 -11 14 -10 9 4 -5 14 -24 23 -24 12z"/>
<path d="M2626 4583 c-6 -14 -5 -15 5 -6 7 7 10 15 7 18 -3 3 -9 -2 -12 -12z"/>
<path d="M2790 4559 c0 -5 5 -7 10 -4 6 3 10 8 10 11 0 2 -4 4 -10 4 -5 0 -10
-5 -10 -11z"/>
<path d="M2535 4540 c-3 -5 -1 -10 4 -10 6 0 11 5 11 10 0 6 -2 10 -4 10 -3 0
-8 -4 -11 -10z"/>
<path d="M1900 4525 c-19 -22 -8 -25 13 -3 9 10 13 18 8 18 -5 0 -14 -7 -21
-15z"/>
<path d="M2406 4493 c-4 -9 -3 -20 1 -24 4 -4 9 3 9 17 2 28 -1 31 -10 7z"/>
<path d="M2190 4496 c0 -11 30 -39 36 -34 2 3 -5 13 -16 23 -11 10 -20 15 -20
11z"/>
<path d="M2588 4493 c7 -3 16 -2 19 1 4 3 -2 6 -13 5 -11 0 -14 -3 -6 -6z"/>
<path d="M2921 4484 c0 -11 3 -14 6 -6 3 7 2 16 -1 19 -3 4 -6 -2 -5 -13z"/>
<path d="M1970 4471 c0 -6 4 -13 10 -16 6 -3 7 1 4 9 -7 18 -14 21 -14 7z"/>
<path d="M2321 4464 c0 -11 3 -14 6 -6 3 7 2 16 -1 19 -3 4 -6 -2 -5 -13z"/>
<path d="M2961 4464 c0 -11 3 -14 6 -6 3 7 2 16 -1 19 -3 4 -6 -2 -5 -13z"/>
<path d="M2562 4450 c0 -14 2 -19 5 -12 2 6 2 18 0 25 -3 6 -5 1 -5 -13z"/>
<path d="M2746 4457 c3 -10 9 -15 12 -12 3 3 0 11 -7 18 -10 9 -11 8 -5 -6z"/>
<path d="M2590 4439 c-7 -11 -10 -23 -7 -25 2 -2 9 7 15 21 14 30 7 33 -8 4z"/>
<path d="M2888 4433 c5 -21 7 -23 10 -9 2 10 0 22 -6 28 -6 6 -7 0 -4 -19z"/>
<path d="M1886 4417 c3 -10 9 -15 12 -12 3 3 0 11 -7 18 -10 9 -11 8 -5 -6z"/>
<path d="M2285 4399 c-4 -6 -5 -12 -2 -15 2 -3 7 2 10 11 7 17 1 20 -8 4z"/>
<path d="M2480 4391 c5 -11 15 -23 21 -27 6 -3 3 5 -6 20 -20 30 -30 35 -15 7z"/>
<path d="M2561 4405 c0 -5 6 -21 14 -35 8 -14 14 -20 14 -15 0 6 -6 21 -14 35
-8 14 -14 21 -14 15z"/>
<path d="M2656 4377 c3 -10 9 -15 12 -12 3 3 0 11 -7 18 -10 9 -11 8 -5 -6z"/>
<path d="M2435 4370 c3 -5 11 -10 16 -10 6 0 7 5 4 10 -3 6 -11 10 -16 10 -6
0 -7 -4 -4 -10z"/>
<path d="M2932 4360 c0 -14 2 -19 5 -12 2 6 2 18 0 25 -3 6 -5 1 -5 -13z"/>
<path d="M2855 4350 c3 -5 8 -10 11 -10 2 0 4 5 4 10 0 6 -5 10 -11 10 -5 0
-7 -4 -4 -10z"/>
<path d="M1972 4314 c2 -10 12 -20 23 -21 16 -1 16 -1 2 3 -9 3 -15 9 -12 14
3 5 0 12 -6 15 -7 5 -10 0 -7 -11z"/>
<path d="M2545 4320 c-3 -5 -1 -10 4 -10 6 0 11 5 11 10 0 6 -2 10 -4 10 -3 0
-8 -4 -11 -10z"/>
<path d="M2221 4304 c0 -11 3 -14 6 -6 3 7 2 16 -1 19 -3 4 -6 -2 -5 -13z"/>
<path d="M2726 4307 c3 -10 9 -15 12 -12 3 3 0 11 -7 18 -10 9 -11 8 -5 -6z"/>
<path d="M2780 4305 c0 -8 4 -15 10 -15 5 0 7 7 4 15 -4 8 -8 15 -10 15 -2 0
-4 -7 -4 -15z"/>
<path d="M2446 4283 c-6 -14 -5 -15 5 -6 7 7 10 15 7 18 -3 3 -9 -2 -12 -12z"/>
<path d="M2630 4281 c0 -25 6 -27 13 -6 4 8 2 17 -3 20 -6 4 -10 -3 -10 -14z"/>
<path d="M2670 4279 c0 -5 5 -7 10 -4 6 3 10 8 10 11 0 2 -4 4 -10 4 -5 0 -10
-5 -10 -11z"/>
<path d="M2090 4255 c0 -8 4 -15 10 -15 5 0 7 7 4 15 -4 8 -8 15 -10 15 -2 0
-4 -7 -4 -15z"/>
<path d="M2300 4259 c0 -5 5 -7 10 -4 6 3 10 8 10 11 0 2 -4 4 -10 4 -5 0 -10
-5 -10 -11z"/>
<path d="M2596 4257 c3 -10 9 -15 12 -12 3 3 0 11 -7 18 -10 9 -11 8 -5 -6z"/>
<path d="M2560 4251 c0 -6 4 -13 10 -16 6 -3 7 1 4 9 -7 18 -14 21 -14 7z"/>
<path d="M2037 4221 c-4 -17 -3 -21 5 -13 5 5 8 16 6 23 -3 8 -7 3 -11 -10z"/>
<path d="M2350 4212 c0 -5 7 -15 15 -22 8 -7 15 -8 15 -2 0 5 -7 15 -15 22 -8
7 -15 8 -15 2z"/>
<path d="M2720 4205 c0 -8 4 -15 10 -15 5 0 7 7 4 15 -4 8 -8 15 -10 15 -2 0
-4 -7 -4 -15z"/>
<path d="M2301 4197 c2 -1 13 -9 24 -17 19 -14 19 -14 6 3 -7 9 -18 17 -24 17
-6 0 -8 -1 -6 -3z"/>
<path d="M1990 4129 c0 -5 5 -7 10 -4 6 3 10 8 10 11 0 2 -4 4 -10 4 -5 0 -10
-5 -10 -11z"/>
<path d="M2101 4124 c0 -11 3 -14 6 -6 3 7 2 16 -1 19 -3 4 -6 -2 -5 -13z"/>
<path d="M2735 4129 c-4 -6 -5 -12 -2 -15 2 -3 7 2 10 11 7 17 1 20 -8 4z"/>
<path d="M2765 4130 c-3 -5 -1 -10 4 -10 6 0 11 5 11 10 0 6 -2 10 -4 10 -3 0
-8 -4 -11 -10z"/>
<path d="M2381 4114 c0 -11 3 -14 6 -6 3 7 2 16 -1 19 -3 4 -6 -2 -5 -13z"/>
<path d="M2835 4100 c3 -5 8 -10 11 -10 2 0 4 5 4 10 0 6 -5 10 -11 10 -5 0
-7 -4 -4 -10z"/>
<path d="M2317 4093 c-4 -3 -7 -13 -7 -22 1 -13 3 -13 11 2 11 19 8 33 -4 20z"/>
<path d="M2434 4078 c-19 -23 -19 -23 2 -5 11 9 24 14 29 10 4 -5 5 -2 1 5 -9
16 -10 16 -32 -10z"/>
<path d="M2276 4077 c3 -10 9 -15 12 -12 3 3 0 11 -7 18 -10 9 -11 8 -5 -6z"/>
<path d="M2805 4050 c-3 -6 1 -7 9 -4 18 7 21 14 7 14 -6 0 -13 -4 -16 -10z"/>
<path d="M2277 3999 c7 -7 15 -10 18 -7 3 3 -2 9 -12 12 -14 6 -15 5 -6 -5z"/>
<path d="M2341 3994 c0 -11 3 -14 6 -6 3 7 2 16 -1 19 -3 4 -6 -2 -5 -13z"/>
<path d="M2288 3963 c7 -3 16 -2 19 1 4 3 -2 6 -13 5 -11 0 -14 -3 -6 -6z"/>
<path d="M2386 3912 c-3 -5 1 -9 9 -9 8 0 12 4 9 9 -3 4 -7 8 -9 8 -2 0 -6 -4
-9 -8z"/>
<path d="M2430 3911 c0 -6 4 -12 8 -15 5 -3 9 1 9 9 0 8 -4 15 -9 15 -4 0 -8
-4 -8 -9z"/>
<path d="M3278 5123 c-29 -86 -96 -276 -127 -360 l-30 -83 53 0 53 0 13 45 13
46 95 -3 95 -3 15 -42 c14 -43 14 -43 63 -43 27 0 49 2 49 4 0 4 -108 309
-162 459 -9 25 -14 27 -62 27 l-52 0 -16 -47z m88 22 c-3 -9 0 -15 9 -15 9 0
12 6 8 18 -4 10 -2 14 3 9 9 -9 18 -32 78 -211 21 -60 44 -122 52 -138 8 -15
12 -28 9 -28 -3 0 -2 -8 3 -17 5 -10 12 -30 16 -45 6 -26 4 -28 -28 -28 -29 0
-36 4 -45 31 -14 40 -14 42 2 34 6 -4 3 1 -8 10 -11 9 -19 22 -17 28 3 9 0 9
-9 0 -9 -9 -16 -9 -25 -2 -8 7 -14 7 -19 -1 -4 -7 -12 -7 -25 0 -19 10 -81 7
-112 -5 -11 -4 -18 -3 -18 5 0 6 -4 8 -10 5 -5 -3 -10 -11 -10 -16 0 -6 5 -7
10 -4 13 8 13 -11 -2 -52 -11 -30 -16 -33 -51 -33 -27 0 -38 4 -35 13 3 6 13
36 22 65 10 30 24 52 32 52 8 0 14 7 14 16 0 8 4 13 9 9 5 -3 12 -1 15 4 10
15 -25 6 -36 -10 -8 -11 -9 -11 -5 2 3 10 11 35 18 58 7 22 16 38 22 34 6 -3
7 -1 4 4 -9 14 23 104 34 97 5 -3 6 1 3 9 -3 8 2 37 11 64 15 47 18 50 52 51
27 1 34 -2 29 -13z"/>
<path d="M3322 5014 c-7 -14 -16 -23 -20 -20 -5 3 -9 -1 -9 -9 0 -8 4 -12 9
-9 11 7 11 5 -11 -59 -11 -30 -17 -58 -14 -61 4 -3 37 -6 75 -6 73 0 77 4 59
53 -24 62 -39 127 -29 121 7 -4 8 -3 4 4 -13 22 -52 13 -64 -14z m57 -56 c13
-40 26 -79 28 -85 4 -10 -11 -13 -56 -13 -34 0 -61 3 -61 6 0 16 54 164 60
164 3 0 17 -33 29 -72z"/>
<path d="M3398 4998 c7 -7 12 -20 12 -30 0 -10 3 -18 8 -18 4 0 7 11 7 24 0
13 -3 22 -7 19 -5 -2 -8 1 -8 6 0 6 -5 11 -12 11 -9 0 -9 -3 0 -12z"/>
<path d="M3260 4929 c0 -5 5 -7 10 -4 6 3 10 8 10 11 0 2 -4 4 -10 4 -5 0 -10
-5 -10 -11z"/>
<path d="M3437 4886 c-4 -10 1 -12 14 -9 23 6 24 9 5 16 -8 3 -17 0 -19 -7z"/>
<path d="M3443 4845 c-18 -19 -17 -21 12 -20 14 0 25 3 25 8 0 4 0 12 0 17 0
15 -23 12 -37 -5z"/>
<path d="M3250 4810 c0 -5 5 -10 11 -10 5 0 7 5 4 10 -3 6 -8 10 -11 10 -2 0
-4 -4 -4 -10z"/>
<path d="M3465 4800 c-3 -5 -1 -10 4 -10 6 0 11 5 11 10 0 6 -2 10 -4 10 -3 0
-8 -4 -11 -10z"/>
<path d="M3496 4797 c3 -10 9 -15 12 -12 3 3 0 11 -7 18 -10 9 -11 8 -5 -6z"/>
<path d="M3196 4783 c-6 -14 -5 -15 5 -6 7 7 10 15 7 18 -3 3 -9 -2 -12 -12z"/>
<path d="M3200 4750 c8 -5 20 -10 25 -10 6 0 3 5 -5 10 -8 5 -19 10 -25 10 -5
0 -3 -5 5 -10z"/>
<path d="M6577 5156 c-120 -43 -179 -185 -136 -326 20 -65 83 -125 154 -146
183 -53 342 111 295 305 -33 138 -177 215 -313 167z m120 -17 c-3 -12 0 -16 9
-12 8 3 11 9 8 14 -17 27 62 -8 107 -48 67 -60 84 -200 34 -291 -28 -51 -52
-71 -40 -32 4 11 2 20 -4 20 -6 0 -11 -13 -11 -30 0 -40 -34 -60 -52 -30 -7
11 -19 20 -27 20 -8 0 1 10 20 23 18 12 39 34 46 47 7 14 16 24 21 23 4 -1 4
38 1 85 -4 48 -5 90 -3 94 2 4 -1 10 -7 14 -8 4 -9 3 -5 -4 4 -7 3 -12 -1 -12
-10 0 -38 42 -35 53 1 5 -2 6 -8 2 -6 -4 -18 -1 -26 5 -9 9 -36 11 -78 8 -59
-5 -64 -4 -61 13 2 10 0 21 -5 24 -4 3 -7 -3 -5 -12 1 -10 -3 -24 -9 -32 -8
-11 -8 -13 2 -7 6 4 12 3 12 -1 0 -5 -8 -13 -18 -20 -62 -38 -69 -194 -11
-258 14 -15 15 -24 7 -39 -8 -14 -7 -17 3 -13 8 2 13 9 12 15 -1 5 7 8 19 4
20 -5 20 -5 -3 -24 l-24 -19 24 11 c21 11 23 10 18 -4 -4 -10 -3 -15 3 -11 6
3 10 13 10 21 0 18 70 20 88 2 7 -7 12 -9 12 -4 0 4 7 1 15 -8 8 -8 15 -17 15
-20 0 -10 -83 -28 -104 -22 -11 3 -24 5 -29 5 -35 2 -120 58 -111 73 3 5 0 7
-6 6 -16 -4 -52 62 -46 85 2 9 0 17 -5 17 -13 0 -11 101 2 141 29 86 120 151
207 147 36 -1 43 -5 39 -19z m43 -85 c42 -36 60 -74 60 -129 0 -85 -46 -151
-113 -162 -81 -13 -140 29 -157 112 -14 67 -5 118 28 157 31 36 54 47 109 47
31 1 49 -6 73 -25z"/>
<path d="M6648 5143 c6 -2 9 -10 6 -15 -4 -7 -2 -8 5 -4 13 9 5 26 -12 25 -9
0 -8 -2 1 -6z"/>
<path d="M6730 5131 c0 -6 4 -13 10 -16 6 -3 7 1 4 9 -7 18 -14 21 -14 7z"/>
<path d="M6775 5060 c3 -5 8 -10 11 -10 2 0 4 5 4 10 0 6 -5 10 -11 10 -5 0
-7 -4 -4 -10z"/>
<path d="M6475 5010 c-3 -5 -1 -10 4 -10 6 0 11 5 11 10 0 6 -2 10 -4 10 -3 0
-8 -4 -11 -10z"/>
<path d="M6861 4954 c0 -11 3 -14 6 -6 3 7 2 16 -1 19 -3 4 -6 -2 -5 -13z"/>
<path d="M6478 4863 c7 -3 16 -2 19 1 4 3 -2 6 -13 5 -11 0 -14 -3 -6 -6z"/>
<path d="M6833 4799 c-2 -23 3 -25 10 -4 4 8 3 16 -1 19 -4 3 -9 -4 -9 -15z"/>
<path d="M6520 4785 c0 -5 5 -17 10 -25 5 -8 10 -10 10 -5 0 6 -5 17 -10 25
-5 8 -10 11 -10 5z"/>
<path d="M6692 4721 c4 -13 18 -16 19 -4 0 4 -5 9 -11 12 -7 2 -11 -2 -8 -8z"/>
<path d="M8530 5150 c-97 -46 -135 -108 -135 -225 0 -110 40 -181 127 -226
108 -55 263 -15 313 82 23 43 19 49 -35 49 -44 0 -54 -4 -79 -32 -27 -30 -34
-33 -90 -33 -52 0 -63 4 -90 29 -64 62 -63 193 3 253 29 27 44 33 81 33 55 0
96 -19 115 -54 11 -22 20 -26 62 -26 41 0 48 3 48 19 0 30 -61 102 -105 125
-58 30 -157 33 -215 6z m70 -2 c0 17 72 16 115 -2 45 -19 101 -71 113 -105 10
-27 9 -28 -27 -29 -31 -1 -41 4 -60 29 -27 37 -60 51 -128 53 -47 2 -54 0 -73
-26 -12 -16 -25 -26 -31 -23 -5 4 -9 3 -8 -2 1 -4 -3 -21 -10 -38 -8 -19 -11
-55 -7 -95 6 -83 8 -90 18 -90 4 0 8 -6 8 -13 0 -20 79 -60 119 -60 20 0 46 5
57 11 12 6 25 8 29 4 5 -4 5 -2 1 5 -3 7 2 14 14 18 11 3 20 13 20 21 0 17 40
19 41 2 0 -10 2 -10 6 0 6 17 20 15 27 -3 7 -19 -46 -76 -94 -101 -68 -34
-189 -18 -247 33 -26 23 -30 38 -8 30 8 -4 17 -2 19 2 3 5 -6 8 -21 7 -21 -1
-30 7 -47 39 -27 53 -28 164 -1 215 22 42 56 80 72 80 6 0 13 5 15 12 6 18 71
38 80 24 5 -8 8 -7 8 2z"/>
<path d="M8610 5125 c0 -8 4 -15 10 -15 5 0 7 7 4 15 -4 8 -8 15 -10 15 -2 0
-4 -7 -4 -15z"/>
<path d="M8700 5130 c0 -5 5 -10 11 -10 5 0 7 5 4 10 -3 6 -8 10 -11 10 -2 0
-4 -4 -4 -10z"/>
<path d="M8677 5123 c-9 -8 12 -33 27 -33 6 0 3 5 -7 11 -9 6 -15 14 -12 20 7
10 2 12 -8 2z"/>
<path d="M8450 5058 c0 -4 6 -8 14 -8 8 0 17 4 20 8 2 4 -4 8 -15 8 -10 0 -19
-4 -19 -8z"/>
<path d="M8421 4964 c0 -11 3 -14 6 -6 3 7 2 16 -1 19 -3 4 -6 -2 -5 -13z"/>
<path d="M8410 4920 c0 -5 5 -10 11 -10 5 0 7 5 4 10 -3 6 -8 10 -11 10 -2 0
-4 -4 -4 -10z"/>
<path d="M3640 4920 l0 -240 50 0 50 0 0 240 0 240 -50 0 -50 0 0 -240z m87
214 c3 -9 0 -20 -8 -25 -8 -5 -9 -9 -3 -9 8 0 11 -63 12 -205 l1 -205 -35 0
-34 0 -1 58 c-1 31 -1 61 0 66 1 6 2 83 2 173 l-1 163 30 0 c19 0 33 -6 37
-16z"/>
<path d="M3827 5148 c4 -7 28 -44 53 -83 25 -38 56 -86 68 -106 l21 -35 -63
-95 c-34 -52 -71 -106 -80 -121 l-18 -28 56 0 56 0 52 81 c58 92 49 94 116
-18 l37 -63 58 0 58 0 -37 58 c-20 31 -57 87 -81 123 l-43 67 48 73 c27 41 61
93 76 117 l26 42 -55 0 -55 0 -37 -61 c-21 -33 -43 -67 -48 -75 -8 -12 -20 1
-55 60 l-45 75 -58 1 c-44 0 -56 -3 -50 -12z m109 -15 c9 -13 9 -22 2 -31 -8
-9 -7 -11 6 -6 10 4 18 0 22 -12 4 -11 14 -27 22 -36 12 -14 12 -21 3 -32 -10
-12 -8 -17 11 -27 19 -9 21 -9 11 2 -17 17 -17 37 -1 21 20 -20 32 -13 51 28
10 22 23 38 28 35 5 -4 7 0 4 7 -3 7 5 26 18 41 18 24 29 28 59 25 l37 -3 -51
-77 c-37 -56 -55 -75 -63 -68 -13 11 -25 3 -25 -14 0 -6 4 -5 9 3 6 9 11 10
15 2 11 -17 -2 -31 -22 -25 -12 4 -13 3 -4 -3 7 -5 10 -17 6 -26 -3 -9 7 -34
26 -62 17 -25 28 -50 24 -57 -4 -6 -3 -9 2 -6 5 3 27 -19 48 -50 21 -30 33
-52 25 -48 -8 4 -5 0 5 -8 19 -15 18 -16 -21 -16 -40 0 -43 2 -88 69 -28 42
-44 75 -39 82 4 7 3 9 -4 5 -7 -4 -10 1 -9 14 1 11 5 20 9 20 4 0 8 4 8 10 0
5 -7 7 -15 4 -8 -4 -15 -13 -15 -21 0 -8 -5 -11 -10 -8 -6 4 -9 2 -8 -2 5 -15
-61 -115 -71 -109 -5 3 -7 -2 -5 -11 7 -33 -20 -55 -66 -51 l-41 3 21 23 c11
12 18 22 15 22 -3 0 11 25 31 55 20 30 41 52 47 48 6 -3 7 -1 3 6 -4 6 2 25
14 41 12 17 19 37 16 45 -2 7 0 16 7 19 7 2 5 5 -4 5 -15 1 -77 81 -62 81 3 0
-2 10 -13 23 -11 12 -30 37 -42 55 l-23 32 42 0 c28 0 46 -6 55 -17z"/>
<path d="M3920 4811 c0 -5 5 -13 10 -16 6 -3 10 -2 10 4 0 5 -4 13 -10 16 -5
3 -10 2 -10 -4z"/>
<path d="M4106 4777 c3 -10 9 -15 12 -12 3 3 0 11 -7 18 -10 9 -11 8 -5 -6z"/>
<path d="M4460 4920 l0 -240 155 0 155 0 0 45 0 45 -107 0 -108 0 0 53 0 52
93 0 92 -1 0 43 0 42 -92 3 -93 3 0 52 0 53 108 0 107 0 0 45 0 45 -155 0
-155 0 0 -240z m300 196 l0 -33 -102 -2 c-56 0 -106 -5 -111 -10 -4 -4 -7 -32
-5 -62 l3 -54 93 -3 92 -3 0 -29 0 -30 -79 0 c-44 0 -86 -3 -95 -6 -20 -8 -23
-106 -3 -122 7 -6 45 -11 83 -11 127 2 124 3 124 -31 l0 -30 -143 0 -143 0 -1
230 -1 230 144 0 144 0 0 -34z"/>
<path d="M4490 5111 c0 -6 4 -13 10 -16 6 -3 7 1 4 9 -7 18 -14 21 -14 7z"/>
<path d="M4520 4906 c7 -7 13 -7 20 0 6 6 3 10 -10 10 -13 0 -16 -4 -10 -10z"/>
<path d="M4585 4730 c-3 -5 -1 -10 4 -10 6 0 11 5 11 10 0 6 -2 10 -4 10 -3 0
-8 -4 -11 -10z"/>
<path d="M4870 4920 l0 -240 45 0 45 0 0 155 c0 85 3 155 8 155 4 0 52 -70
107 -155 l100 -155 43 0 42 0 0 240 0 240 -45 0 -45 0 2 -157 2 -158 3 153 4
152 34 0 35 0 0 -231 0 -230 -37 3 c-20 2 -38 9 -41 16 -2 7 1 11 6 10 9 -3
12 2 12 18 0 4 -7 1 -15 -6 -18 -15 -20 0 -2 20 10 12 9 12 -5 1 -15 -11 -26
2 -96 111 -74 113 -124 183 -106 149 5 -10 3 -13 -7 -9 -12 5 -13 -20 -11
-153 l3 -159 -33 0 -33 0 0 230 0 230 35 0 c31 0 39 -6 65 -48 16 -26 29 -50
27 -54 -1 -5 2 -8 7 -8 5 0 18 -16 30 -35 18 -32 19 -35 3 -36 -9 -1 -21 -1
-25 0 -5 1 -5 -3 -2 -10 4 -6 18 -8 31 -5 19 5 22 3 18 -11 -4 -13 -3 -14 3
-5 7 9 13 5 23 -15 8 -16 23 -39 34 -53 41 -54 3 18 -82 152 l-87 138 -47 0
-48 0 0 -240z"/>
<path d="M5560 4921 l0 -241 45 0 45 0 0 79 0 78 74 5 c122 8 178 58 178 159
-1 61 -25 106 -72 134 -29 16 -57 21 -152 24 l-118 3 0 -241z m220 220 c14 -4
30 -18 37 -31 10 -20 13 -22 13 -6 0 16 2 17 17 5 23 -20 43 -72 43 -116 0
-87 -73 -142 -187 -143 l-63 0 0 -80 0 -80 -35 0 -35 0 0 230 1 230 92 -1 c51
-1 103 -4 117 -8z"/>
<path d="M5615 5130 c-3 -5 1 -10 10 -10 9 0 13 5 10 10 -3 6 -8 10 -10 10 -2
0 -7 -4 -10 -10z"/>
<path d="M5593 5111 c0 -11 5 -18 9 -15 4 3 5 11 1 19 -7 21 -12 19 -10 -4z"/>
<path d="M5712 5122 c-7 -5 -10 -16 -6 -25 5 -14 0 -17 -29 -17 l-36 0 -3 -84
c-2 -46 -1 -84 2 -84 3 0 33 0 67 -1 56 -1 62 -3 58 -21 -2 -12 0 -18 6 -14 6
3 9 13 7 21 -2 9 12 31 30 50 21 23 30 39 24 47 -5 6 -12 23 -16 38 -3 15 -15
32 -26 38 -11 6 -18 14 -16 18 3 5 -5 9 -17 9 -17 2 -19 0 -7 -7 12 -8 10 -10
-9 -10 -20 0 -23 4 -19 25 3 14 5 25 4 25 0 0 -7 -4 -14 -8z m76 -68 c16 -11
22 -25 22 -54 0 -54 -34 -80 -106 -80 l-54 0 0 75 0 75 58 0 c36 0 66 -6 80
-16z"/>
<path d="M5850 4995 c0 -9 6 -12 15 -9 8 4 15 7 15 9 0 2 -7 5 -15 9 -9 3 -15
0 -15 -9z"/>
<path d="M5660 4889 c0 -5 5 -7 10 -4 6 3 10 8 10 11 0 2 -4 4 -10 4 -5 0 -10
-5 -10 -11z"/>
<path d="M5706 4884 c-9 -24 -2 -26 12 -4 7 11 8 20 3 20 -5 0 -12 -7 -15 -16z"/>
<path d="M5585 4860 c3 -5 10 -10 16 -10 5 0 9 5 9 10 0 6 -7 10 -16 10 -8 0
-12 -4 -9 -10z"/>
<path d="M5601 4804 c0 -11 3 -14 6 -6 3 7 2 16 -1 19 -3 4 -6 -2 -5 -13z"/>
<path d="M5596 4765 c4 -8 8 -15 10 -15 2 0 4 7 4 15 0 8 -4 15 -10 15 -5 0
-7 -7 -4 -15z"/>
<path d="M5580 4716 c0 -2 7 -7 16 -10 8 -3 12 -2 9 4 -6 10 -25 14 -25 6z"/>
<path d="M6000 4921 l0 -241 45 0 45 0 0 81 0 80 41 -3 c40 -3 42 -5 82 -80
l41 -78 54 0 53 0 -42 78 c-23 42 -49 86 -58 96 -9 11 -11 16 -4 12 7 -4 29
10 53 34 37 37 40 44 40 96 0 66 -22 109 -72 139 -27 16 -55 20 -155 23 l-123
4 0 -241z m249 211 c57 -22 84 -59 87 -118 3 -51 -11 -87 -46 -119 -18 -16
-23 -17 -30 -5 -8 13 -10 12 -11 -2 -1 -10 -2 -24 -3 -30 -1 -7 7 -22 17 -33
10 -11 13 -21 7 -23 -5 -2 -10 -8 -10 -13 0 -4 6 -6 13 -3 8 3 22 -12 36 -36
16 -29 19 -40 9 -41 -7 0 -4 -4 7 -9 16 -7 10 -9 -22 -9 -41 -1 -43 1 -69 50
-14 28 -21 48 -15 45 6 -4 9 5 8 23 -2 30 -17 33 -17 3 -1 -16 -1 -15 -11 1
-5 9 -7 22 -4 27 4 6 -17 10 -54 10 -58 0 -60 1 -52 23 9 23 56 32 56 10 0 -6
2 -13 5 -15 3 -1 4 -1 3 1 -2 2 3 11 10 19 9 13 9 14 0 8 -8 -4 -13 -2 -13 4
0 6 -12 10 -27 8 -18 -2 -32 -14 -45 -36 -10 -18 -14 -31 -8 -27 6 4 10 -22
10 -74 l0 -80 -35 1 -35 1 0 229 1 228 97 -1 c66 0 111 -5 141 -17z"/>
<path d="M6091 5124 c0 -11 3 -14 6 -6 3 7 2 16 -1 19 -3 4 -6 -2 -5 -13z"/>
<path d="M6270 5075 c-5 -14 -12 -25 -16 -25 -3 0 -4 6 -1 13 5 14 -18 18
-108 20 l-60 1 -3 -82 -3 -82 75 0 c69 0 76 2 96 27 16 20 21 38 18 65 -3 29
1 39 17 47 11 5 15 10 8 10 -7 1 -10 8 -7 16 4 8 3 15 0 15 -4 0 -11 -11 -16
-25z m-30 -25 c23 -23 26 -68 6 -95 -11 -15 -30 -20 -85 -23 l-71 -4 0 71 0
71 65 0 c52 0 69 -4 85 -20z"/>
<path d="M6288 5033 c7 -3 16 -2 19 1 4 3 -2 6 -13 5 -11 0 -14 -3 -6 -6z"/>
<path d="M6290 5004 c0 -8 5 -12 10 -9 6 4 8 11 5 16 -9 14 -15 11 -15 -7z"/>
<path d="M6062 4940 c0 -14 2 -19 5 -12 2 6 2 18 0 25 -3 6 -5 1 -5 -13z"/>
<path d="M6108 4873 c7 -3 16 -2 19 1 4 3 -2 6 -13 5 -11 0 -14 -3 -6 -6z"/>
<path d="M6235 4779 c-4 -6 -5 -12 -2 -15 2 -3 7 2 10 11 7 17 1 20 -8 4z"/>
<path d="M6278 4743 c7 -3 16 -2 19 1 4 3 -2 6 -13 5 -11 0 -14 -3 -6 -6z"/>
<path d="M6930 5156 c0 -3 4 -15 10 -28 18 -43 142 -383 152 -415 9 -33 10
-33 71 -33 l62 0 32 83 c39 101 128 344 138 375 6 22 5 23 -46 20 l-53 -3 -58
-160 c-57 -160 -67 -205 -47 -205 5 0 7 5 4 10 -8 13 23 110 35 110 5 0 7 7 4
15 -4 8 -1 15 5 15 6 0 8 6 6 13 -3 6 11 53 29 102 34 89 35 90 70 93 28 2 36
-1 36 -13 0 -9 -4 -13 -10 -10 -5 3 -7 0 -4 -8 3 -8 -11 -55 -30 -104 -20 -50
-36 -95 -36 -102 0 -6 -4 -11 -10 -11 -6 0 -9 -3 -9 -7 4 -25 -2 -43 -13 -37
-6 4 -8 3 -5 -3 9 -14 -12 -73 -25 -73 -5 0 -6 -5 -3 -10 4 -6 1 -26 -5 -45
-11 -34 -13 -35 -66 -35 -34 0 -53 4 -49 10 3 6 2 10 -3 10 -16 0 -25 52 -10
62 10 8 9 9 -2 5 -11 -3 -20 8 -32 37 -53 139 -68 184 -68 204 0 12 -4 22 -8
22 -5 0 -14 18 -21 41 -7 23 -15 47 -18 55 -4 11 5 14 34 14 37 0 40 -3 51
-37 6 -20 9 -40 6 -45 -3 -4 -1 -8 4 -8 16 0 33 -58 19 -64 -7 -3 -6 -5 3 -5
16 -1 57 -113 53 -144 -2 -10 2 -15 7 -12 6 3 10 -1 10 -10 0 -9 -4 -14 -8
-11 -4 2 -8 -7 -9 -22 0 -15 1 -19 4 -9 3 12 11 16 23 12 17 -6 17 -2 -5 57
-13 35 -40 110 -60 168 -50 142 -44 135 -104 138 -28 2 -51 1 -51 -2z"/>
<path d="M7480 4920 l0 -240 158 0 157 0 -3 45 -4 45 -103 0 -103 0 -4 51 c-1
28 -1 52 2 54 3 2 44 2 93 2 l87 -2 0 43 0 42 -89 0 -89 0 -4 55 -3 55 106 0
107 0 4 45 3 45 -157 0 -158 0 0 -240z m300 194 l0 -36 -97 2 c-140 3 -131 5
-127 -32 3 -20 -2 -39 -13 -52 -16 -18 -16 -19 -1 -8 14 11 17 10 20 -10 3
-22 7 -23 96 -26 l92 -3 0 -29 0 -30 -90 0 c-85 0 -90 -1 -95 -23 -8 -31 -1
-95 12 -108 10 -10 137 -14 181 -5 19 4 22 1 22 -30 l0 -34 -144 0 c-132 0
-144 1 -141 18 2 9 4 25 4 36 1 16 3 16 21 -5 10 -13 19 -18 20 -11 0 6 -5 12
-11 12 -7 0 -9 10 -5 25 7 27 -3 32 -22 13 -9 -9 -12 -9 -12 0 0 7 4 12 10 12
5 0 8 6 6 13 -3 6 -7 27 -10 45 -4 25 -3 31 7 26 8 -6 8 -3 -1 9 -9 10 -12 35
-10 69 3 44 7 52 21 50 9 -2 17 2 17 8 0 6 -3 9 -7 7 -17 -11 -30 22 -30 76
l-1 57 144 0 144 0 0 -36z"/>
<path d="M7524 5124 c3 -8 6 -18 6 -20 0 -2 5 -4 10 -4 6 0 9 3 9 8 -3 19 2
23 16 12 10 -9 15 -9 15 -1 0 6 -3 11 -7 12 -5 0 -19 2 -32 5 -18 3 -22 1 -17
-12z"/>
<path d="M7517 5063 c-4 -3 -7 -11 -7 -17 0 -6 5 -5 12 2 6 6 9 14 7 17 -3 3
-9 2 -12 -2z"/>
<path d="M7595 4910 c-3 -5 -1 -10 4 -10 6 0 11 5 11 10 0 6 -2 10 -4 10 -3 0
-8 -4 -11 -10z"/>
<path d="M7521 4853 c-1 -17 16 -25 25 -12 4 7 3 9 -4 5 -5 -3 -13 0 -15 6 -4
9 -6 10 -6 1z"/>
<path d="M7696 4717 c-16 -12 -16 -14 -2 -14 9 0 16 4 16 8 0 4 8 10 18 12 13
4 14 5 1 6 -8 0 -23 -5 -33 -12z"/>
<path d="M7900 4920 l0 -240 45 0 45 0 0 156 c0 92 4 154 9 152 5 -1 55 -72
110 -155 l101 -153 39 0 40 0 3 218 c2 119 2 227 0 240 -3 19 -9 22 -48 22
l-44 0 2 -152 2 -153 3 148 4 147 35 0 35 0 -1 -214 c-1 -155 -5 -216 -13
-220 -9 -3 -9 -5 1 -5 27 -2 10 -20 -18 -19 -33 1 -66 30 -54 49 5 8 3 10 -5
5 -8 -5 -14 0 -18 13 -3 12 -10 21 -15 21 -5 0 -6 10 -3 23 4 13 3 17 -2 10
-6 -8 -27 16 -66 73 -31 47 -57 89 -57 94 0 16 -38 31 -46 19 -4 -7 -6 -79 -5
-160 l2 -149 -35 0 -36 0 0 150 c0 113 3 150 13 150 9 0 9 2 0 8 -8 5 -12 33
-12 80 l1 72 38 0 c37 0 40 -3 90 -80 29 -46 48 -86 44 -93 -4 -6 -4 -9 1 -5
11 10 38 -29 30 -42 -4 -6 -1 -9 6 -8 6 2 14 -3 16 -9 3 -7 -2 -13 -11 -13 -9
0 -16 -5 -16 -10 0 -7 6 -8 17 -1 14 7 22 2 41 -22 50 -65 9 11 -81 150 l-92
143 -47 0 -48 0 0 -240z"/>
<path d="M8943 4920 l1 -240 159 0 158 0 -3 43 -3 42 -107 3 -108 3 0 55 0 55
93 -2 92 -2 3 42 3 41 -95 0 -96 0 0 55 0 55 104 0 104 0 4 45 3 45 -156 0
-157 0 1 -240z m297 196 l0 -34 -102 -1 c-56 -1 -104 -4 -107 -6 -7 -7 -4
-102 4 -114 3 -7 42 -11 94 -11 95 0 88 4 82 -52 -1 -4 -40 -9 -88 -10 l-88
-3 -6 -55 c-6 -47 -4 -58 13 -72 11 -10 23 -16 28 -13 6 4 102 7 153 5 12 -1
17 -6 13 -15 -3 -8 -1 -17 4 -20 30 -19 -3 -25 -135 -25 l-145 0 0 230 0 230
140 0 140 0 0 -34z"/>
<path d="M9100 5136 c0 -2 7 -6 15 -10 8 -3 15 -1 15 4 0 6 -7 10 -15 10 -8 0
-15 -2 -15 -4z"/>
<path d="M8975 5020 c-3 -5 -1 -10 4 -10 6 0 11 5 11 10 0 6 -2 10 -4 10 -3 0
-8 -4 -11 -10z"/>
<path d="M9010 4909 c0 -5 5 -7 10 -4 6 3 10 8 10 11 0 2 -4 4 -10 4 -5 0 -10
-5 -10 -11z"/>
<path d="M9005 4750 c3 -5 8 -10 11 -10 2 0 4 5 4 10 0 6 -5 10 -11 10 -5 0
-7 -4 -4 -10z"/>
<path d="M9055 4720 c-3 -6 1 -7 9 -4 18 7 21 14 7 14 -6 0 -13 -4 -16 -10z"/>
<path d="M8245 5130 c-3 -5 -1 -10 4 -10 6 0 11 5 11 10 0 6 -2 10 -4 10 -3 0
-8 -4 -11 -10z"/>
<path d="M4935 5089 c-4 -6 -5 -12 -2 -15 2 -3 7 2 10 11 7 17 1 20 -8 4z"/>
<path d="M5210 5090 c0 -5 5 -10 11 -10 5 0 7 5 4 10 -3 6 -8 10 -11 10 -2 0
-4 -4 -4 -10z"/>
<path d="M8245 5080 c3 -5 8 -10 11 -10 2 0 4 5 4 10 0 6 -5 10 -11 10 -5 0
-7 -4 -4 -10z"/>
<path d="M5190 5061 c0 -25 6 -27 13 -6 4 8 2 17 -3 20 -6 4 -10 -3 -10 -14z"/>
<path d="M4940 5038 c0 -4 4 -8 9 -8 6 0 12 4 15 8 3 5 -1 9 -9 9 -8 0 -15 -4
-15 -9z"/>
<path d="M7286 5028 c3 -5 10 -6 15 -3 13 9 11 12 -6 12 -8 0 -12 -4 -9 -9z"/>
<path d="M7011 5008 c-1 -20 14 -24 25 -6 4 6 3 8 -4 4 -5 -3 -13 0 -15 6 -3
8 -6 6 -6 -4z"/>
<path d="M7303 4995 c-7 -8 -9 -16 -4 -19 5 -3 12 1 15 10 8 22 4 25 -11 9z"/>
<path d="M4910 4979 c0 -5 5 -7 10 -4 6 3 10 8 10 11 0 2 -4 4 -10 4 -5 0 -10
-5 -10 -11z"/>
<path d="M7025 4970 c3 -5 8 -10 11 -10 2 0 4 5 4 10 0 6 -5 10 -11 10 -5 0
-7 -4 -4 -10z"/>
<path d="M5190 4940 c0 -11 2 -20 4 -20 2 0 6 9 9 20 3 11 1 20 -4 20 -5 0 -9
-9 -9 -20z"/>
<path d="M5213 4935 c-3 -9 -3 -18 -1 -21 3 -3 8 4 11 16 6 23 -1 27 -10 5z"/>
<path d="M8231 4883 c7 -12 15 -20 18 -17 3 2 -3 12 -13 22 -17 16 -18 16 -5
-5z"/>
<path d="M5145 4830 c-3 -5 -1 -10 4 -10 6 0 11 5 11 10 0 6 -2 10 -4 10 -3 0
-8 -4 -11 -10z"/>
<path d="M8240 4810 c0 -5 5 -10 11 -10 5 0 7 5 4 10 -3 6 -8 10 -11 10 -2 0
-4 -4 -4 -10z"/>
<path d="M4901 4784 c0 -11 3 -14 6 -6 3 7 2 16 -1 19 -3 4 -6 -2 -5 -13z"/>
<path d="M5180 4796 c0 -2 7 -7 16 -10 8 -3 12 -2 9 4 -6 10 -25 14 -25 6z"/>
<path d="M8241 4764 c0 -11 3 -14 6 -6 3 7 2 16 -1 19 -3 4 -6 -2 -5 -13z"/>
<path d="M7134 4758 c-13 -20 -13 -38 -2 -38 6 0 8 6 5 14 -3 8 -1 17 6 19 7
2 9 7 6 11 -4 4 -11 1 -15 -6z"/>
<path d="M7185 4739 c-4 -6 -5 -12 -2 -15 2 -3 7 2 10 11 7 17 1 20 -8 4z"/>
<path d="M5408 4381 c-52 -11 -110 -54 -136 -100 -42 -74 -38 -175 9 -235 27
-35 120 -81 204 -102 73 -19 128 -50 133 -78 7 -35 -8 -64 -42 -80 -75 -35
-168 -10 -201 54 -16 30 -17 31 -83 28 l-67 -3 3 -35 c8 -78 80 -156 167 -179
53 -14 155 -14 212 1 88 22 163 119 163 211 0 33 -24 94 -48 120 -26 29 -99
63 -197 91 -102 30 -135 55 -135 102 0 48 38 74 108 74 51 0 58 -3 91 -37 36
-38 36 -38 102 -33 l66 5 -14 47 c-15 53 -64 107 -119 133 -40 19 -161 28
-216 16z m174 -17 c32 -9 56 -20 53 -24 -3 -4 3 -7 13 -6 9 0 16 -5 14 -12 -1
-8 2 -11 6 -8 17 10 72 -76 72 -114 0 -6 -25 -10 -58 -10 -51 0 -60 3 -71 23
-7 13 -31 32 -53 42 -76 33 -166 3 -182 -62 -7 -26 27 -99 47 -100 7 -1 38
-11 69 -22 32 -12 65 -21 73 -21 9 0 13 -4 10 -10 -3 -5 0 -7 8 -4 34 13 153
-65 143 -93 -3 -8 -2 -11 3 -8 14 8 22 -25 22 -88 1 -52 -13 -98 -29 -96 -16
2 -52 -14 -52 -23 0 -6 11 -3 25 6 14 9 25 12 25 7 0 -16 -68 -63 -80 -56 -5
3 -10 2 -10 -3 0 -18 -90 -35 -160 -30 -121 9 -209 75 -225 169 l-7 36 44 -1
c28 -1 42 -5 41 -13 -2 -7 4 -10 12 -7 8 4 12 11 9 18 -2 6 3 0 13 -14 10 -14
28 -35 39 -47 12 -12 20 -24 18 -26 -3 -2 32 -4 77 -5 69 0 85 3 106 21 55 48
49 110 -15 139 -69 32 -109 46 -151 53 -22 4 -41 11 -41 16 0 6 -5 7 -10 4 -6
-3 -13 1 -16 9 -3 9 -11 13 -16 10 -5 -4 -25 8 -43 26 -61 59 -67 163 -16 247
25 40 57 61 118 78 66 18 107 18 175 -1z"/>
<path d="M5440 4340 c0 -5 5 -10 11 -10 5 0 7 5 4 10 -3 6 -8 10 -11 10 -2 0
-4 -4 -4 -10z"/>
<path d="M5565 4330 c-3 -5 -2 -10 4 -10 5 0 13 5 16 10 3 6 2 10 -4 10 -5 0
-13 -4 -16 -10z"/>
<path d="M5440 4310 c20 -13 33 -13 25 0 -3 6 -14 10 -23 10 -15 0 -15 -2 -2
-10z"/>
<path d="M5606 4283 c-6 -14 -5 -15 5 -6 7 7 10 15 7 18 -3 3 -9 -2 -12 -12z"/>
<path d="M5685 4219 c-4 -6 -5 -12 -2 -15 2 -3 7 2 10 11 7 17 1 20 -8 4z"/>
<path d="M5636 4212 c-2 -4 4 -9 15 -9 10 -1 19 2 19 8 0 11 -27 12 -34 1z"/>
<path d="M5341 4174 c0 -11 3 -14 6 -6 3 7 2 16 -1 19 -3 4 -6 -2 -5 -13z"/>
<path d="M5547 4021 c-3 -12 0 -24 5 -28 6 -3 8 -1 4 5 -3 5 -2 12 4 14 5 2 6
9 1 16 -6 10 -10 9 -14 -7z"/>
<path d="M5472 3991 c-11 -7 -10 -9 3 -14 11 -5 14 -3 9 5 -5 8 -2 9 9 5 10
-3 17 -2 17 3 0 12 -20 13 -38 1z"/>
<path d="M5542 3965 c-11 -12 -10 -15 3 -15 8 0 15 7 15 15 0 18 -2 18 -18 0z"/>
<path d="M5690 3954 c0 -8 5 -12 10 -9 6 3 10 10 10 16 0 5 -4 9 -10 9 -5 0
-10 -7 -10 -16z"/>
<path d="M5643 3884 c8 -9 47 -13 51 -6 2 4 -9 8 -25 8 -17 1 -28 0 -26 -2z"/>
<path d="M5482 3730 c0 -14 2 -19 5 -12 2 6 2 18 0 25 -3 6 -5 1 -5 -13z"/>
<path d="M5450 3701 c0 -6 5 -13 10 -16 6 -3 10 1 10 9 0 9 -4 16 -10 16 -5 0
-10 -4 -10 -9z"/>
<path d="M5533 3675 c0 -8 4 -15 9 -15 4 0 8 4 8 9 0 6 -4 12 -8 15 -5 3 -9
-1 -9 -9z"/>
<path d="M6134 4381 c-93 -24 -188 -101 -233 -188 -33 -65 -46 -160 -33 -239
22 -130 94 -228 210 -282 51 -24 69 -27 162 -27 94 1 110 3 155 27 127 67 193
166 202 306 9 133 -22 223 -106 309 -66 67 -138 97 -240 100 -47 1 -100 -2
-117 -6z m229 -27 c20 -10 37 -22 37 -26 0 -5 4 -7 9 -4 14 9 89 -51 115 -93
36 -56 66 -152 66 -208 0 -70 -11 -124 -23 -116 -5 3 -7 2 -4 -4 14 -22 -16
-84 -66 -136 -28 -31 -59 -57 -67 -59 -8 -2 -19 -8 -25 -14 -17 -19 -115 -44
-169 -44 -56 0 -98 9 -92 19 2 3 -11 6 -30 7 -37 1 -121 53 -116 73 1 6 -5 11
-12 11 -21 0 -69 66 -60 81 4 7 3 9 -4 5 -13 -8 -26 29 -16 45 4 7 3 9 -3 6
-14 -9 -23 61 -19 158 4 97 29 156 95 222 52 52 140 97 176 90 15 -2 22 0 18
6 -10 17 148 1 190 -19z"/>
<path d="M6279 4349 c-11 -7 -10 -9 4 -10 25 -2 31 -4 42 -11 6 -4 11 1 11 10
0 19 -35 25 -57 11z"/>
<path d="M6357 4334 c-8 -8 3 -34 14 -34 11 0 12 27 0 34 -4 3 -11 3 -14 0z"/>
<path d="M6266 4294 c-11 -8 -16 -14 -10 -14 13 0 39 18 34 24 -3 2 -14 -2
-24 -10z"/>
<path d="M6405 4299 c-4 -6 -5 -12 -2 -15 2 -3 7 2 10 11 7 17 1 20 -8 4z"/>
<path d="M6154 4256 c-17 -7 -46 -28 -66 -45 -19 -17 -37 -29 -39 -26 -3 2 -5
-4 -6 -13 -1 -9 -9 -37 -18 -62 -12 -33 -16 -62 -12 -110 7 -77 11 -97 20
-106 12 -12 8 -24 -8 -24 -13 0 -14 -2 -3 -14 7 -8 16 -12 20 -10 8 5 89 -62
83 -68 -6 -5 -3 -6 98 -11 44 -3 80 0 83 5 4 6 10 5 15 -3 5 -8 9 -9 9 -3 0 5
21 32 48 60 56 58 72 104 72 200 -1 51 -7 81 -24 117 -13 26 -19 47 -15 47 5
0 9 5 9 11 0 5 -5 7 -11 4 -5 -4 -18 -1 -27 7 -63 53 -164 73 -228 44z m131
-7 c97 -27 155 -114 155 -234 0 -141 -80 -235 -201 -235 -69 0 -104 12 -142
48 -99 93 -101 276 -4 372 26 26 53 42 76 46 20 3 41 7 46 9 18 6 29 5 70 -6z"/>
<path d="M6350 4261 c0 -6 4 -13 10 -16 6 -3 7 1 4 9 -7 18 -14 21 -14 7z"/>
<path d="M6077 4239 c-4 -16 -3 -18 9 -8 7 6 11 15 8 20 -8 13 -11 11 -17 -12z"/>
<path d="M5952 4205 c-9 -20 -9 -23 3 -18 8 3 15 14 15 24 0 25 -5 24 -18 -6z"/>
<path d="M6440 4170 c0 -5 5 -10 11 -10 5 0 7 5 4 10 -3 6 -8 10 -11 10 -2 0
-4 -4 -4 -10z"/>
<path d="M5965 4120 c3 -5 8 -10 11 -10 2 0 4 5 4 10 0 6 -5 10 -11 10 -5 0
-7 -4 -4 -10z"/>
<path d="M6520 4010 c-13 -8 -12 -10 3 -10 9 0 17 5 17 10 0 12 -1 12 -20 0z"/>
<path d="M6510 3960 c0 -5 5 -10 11 -10 5 0 7 5 4 10 -3 6 -8 10 -11 10 -2 0
-4 -4 -4 -10z"/>
<path d="M5990 3930 c0 -5 5 -10 11 -10 5 0 7 5 4 10 -3 6 -8 10 -11 10 -2 0
-4 -4 -4 -10z"/>
<path d="M5970 3880 c0 -5 5 -10 11 -10 5 0 7 5 4 10 -3 6 -8 10 -11 10 -2 0
-4 -4 -4 -10z"/>
<path d="M6535 3870 c-3 -5 -1 -10 4 -10 6 0 11 5 11 10 0 6 -2 10 -4 10 -3 0
-8 -4 -11 -10z"/>
<path d="M5995 3819 c-4 -6 -5 -12 -2 -15 2 -3 7 2 10 11 7 17 1 20 -8 4z"/>
<path d="M6370 3795 c-10 -12 -10 -18 -2 -26 7 -5 10 -6 7 -3 -3 4 0 13 7 21
6 7 9 16 6 18 -3 3 -11 -2 -18 -10z"/>
<path d="M6401 3764 c0 -11 3 -14 6 -6 3 7 2 16 -1 19 -3 4 -6 -2 -5 -13z"/>
<path d="M6441 3763 c7 -12 15 -20 18 -17 3 2 -3 12 -13 22 -17 16 -18 16 -5
-5z"/>
<path d="M6868 4378 c-46 -12 -117 -72 -134 -115 -21 -49 -18 -139 7 -190 27
-55 86 -90 215 -128 102 -31 134 -52 134 -91 0 -38 -16 -61 -51 -73 -75 -26
-165 2 -190 59 -13 29 -16 30 -81 30 -37 0 -70 -4 -73 -10 -14 -23 21 -97 70
-146 56 -57 104 -74 202 -74 158 1 256 69 269 187 15 125 -37 184 -212 239
-128 40 -164 64 -164 113 0 46 39 71 112 71 56 0 63 -2 92 -35 31 -33 36 -35
99 -35 l67 0 -6 28 c-12 50 -49 106 -89 134 -65 44 -178 60 -267 36z m159 -4
c13 -4 20 -11 16 -17 -3 -6 -1 -7 6 -3 18 11 63 -2 55 -16 -4 -7 -3 -8 5 -4
15 10 43 -13 34 -27 -3 -5 -1 -7 5 -3 13 8 53 -55 57 -89 2 -24 0 -25 -50 -25
-55 0 -83 17 -69 42 4 7 4 10 -1 6 -4 -4 -22 0 -39 9 -17 10 -37 16 -44 15 -7
-2 -15 4 -18 13 -3 8 -10 15 -16 15 -5 0 -7 -4 -4 -9 3 -5 -14 -14 -38 -20
-24 -6 -49 -17 -56 -26 -7 -8 -15 -13 -19 -11 -4 3 -6 -8 -5 -22 1 -15 3 -34
3 -43 1 -9 12 -28 25 -42 13 -14 22 -28 19 -30 -2 -3 2 -4 9 -4 7 1 33 -4 58
-11 25 -7 62 -17 82 -22 29 -8 36 -15 32 -28 -5 -14 -4 -15 5 -2 9 13 17 11
58 -12 74 -42 106 -121 83 -208 -13 -48 -72 -116 -91 -104 -8 5 -7 9 2 16 11
8 11 9 -1 5 -8 -2 -14 -10 -12 -17 4 -18 -19 -31 -42 -24 -11 4 -16 2 -12 -4
8 -14 -29 -22 -104 -22 -48 0 -79 7 -118 25 -29 14 -51 29 -47 35 3 5 0 7 -8
4 -8 -3 -20 2 -27 11 -12 14 -11 18 1 26 13 8 6 13 -13 10 -10 -1 -34 39 -41
69 -6 25 -5 26 58 28 55 3 64 1 69 -16 4 -10 20 -32 37 -48 28 -26 36 -29 97
-28 89 1 103 5 122 42 10 17 20 29 24 25 3 -4 1 8 -5 25 -6 17 -17 36 -25 43
-7 6 -12 15 -9 19 3 4 -1 7 -8 7 -13 -1 -126 32 -142 41 -5 4 -21 8 -34 10
-32 4 -92 36 -112 58 -71 81 -63 231 15 287 17 12 33 22 36 23 3 0 16 5 30 11
14 6 32 13 40 16 20 7 100 8 127 1z"/>
<path d="M6860 4320 c0 -5 5 -10 11 -10 5 0 7 5 4 10 -3 6 -8 10 -11 10 -2 0
-4 -4 -4 -10z"/>
<path d="M6880 4300 c-8 -5 -12 -12 -9 -15 4 -3 12 1 19 10 14 17 11 19 -10 5z"/>
<path d="M7106 4247 c3 -10 9 -15 12 -12 3 3 0 11 -7 18 -10 9 -11 8 -5 -6z"/>
<path d="M6780 4070 c0 -5 5 -10 10 -10 6 0 10 5 10 10 0 6 -4 10 -10 10 -5 0
-10 -4 -10 -10z"/>
<path d="M6940 3999 c0 -5 5 -7 10 -4 6 3 10 8 10 11 0 2 -4 4 -10 4 -5 0 -10
-5 -10 -11z"/>
<path d="M7065 3960 c3 -5 8 -10 11 -10 2 0 4 5 4 10 0 6 -5 10 -11 10 -5 0
-7 -4 -4 -10z"/>
<path d="M7103 3922 c0 -12 5 -22 9 -22 11 0 10 12 -2 30 -7 12 -9 10 -7 -8z"/>
<path d="M7180 3844 c0 -6 6 -17 14 -23 11 -9 15 -8 20 4 4 10 2 14 -5 9 -6
-4 -15 0 -20 7 -5 8 -9 9 -9 3z"/>
<path d="M7156 3817 c3 -10 9 -15 12 -12 3 3 0 11 -7 18 -10 9 -11 8 -5 -6z"/>
<path d="M7120 3790 c0 -5 5 -10 11 -10 5 0 7 5 4 10 -3 6 -8 10 -11 10 -2 0
-4 -4 -4 -10z"/>
</g>
</svg>
